HIERARCHY
ROOT Hips
{
  OFFSET 0.0 0.0 0.0
  CHANNELS 6 XPOSITION YPOSITION ZPOSITION ZROTATION XROTATION YROTATION 
  JOINT LeftUpLeg
  {
    OFFSET 0.089458 -0.0866707 0.00101652
    CHANNELS 3 ZROTATION XROTATION YROTATION 
    JOINT LeftLeg
    {
      OFFSET 0.0 -0.444227 0.013727
      CHANNELS 3 ZROTATION XROTATION YROTATION 
      JOINT LeftFoot
      {
        OFFSET -0.00253549 -0.420924 -0.0146059
        CHANNELS 3 ZROTATION XROTATION YROTATION 
        End Site
        {
          OFFSET -0.0004 -0.0441509 0.084991
        }
      }
    }
  }
  JOINT Spine
  {
    OFFSET 0.0 0.118905 0.0
    CHANNELS 3 ZROTATION XROTATION YROTATION 
    JOINT Spine1
    {
      OFFSET 0.0 0.256574 0.00127663
      CHANNELS 3 ZROTATION XROTATION YROTATION 
      End Site
      {
        OFFSET -0.0029 0.2150836 0.02525291
      }
      JOINT RightArm
      {
        OFFSET -0.162727 -0.05365632 0.00102123
        CHANNELS 3 ZROTATION XROTATION YROTATION 
        JOINT RightForeArm
        {
          OFFSET -0.26364 0.00099144 -0.0142434
          CHANNELS 3 ZROTATION XROTATION YROTATION 
          End Site
          {
            OFFSET -0.220324 0.00085362 0.0102216
          }
        }
      }
      JOINT LeftArm
      {
        OFFSET 0.162727 -0.0536563199 0.00102123
        CHANNELS 3 ZROTATION XROTATION YROTATION 
        JOINT LeftForeArm
        {
          OFFSET 0.262597 0.00099144 -0.0142434
          CHANNELS 3 ZROTATION XROTATION YROTATION 
          End Site
          {
            OFFSET 0.220902 0.00085362 0.0102216
          }
        }
      }
    }
  }
  JOINT RightUpLeg
  {
    OFFSET -0.089458 -0.0866707 0.00101652
    CHANNELS 3 ZROTATION XROTATION YROTATION 
    JOINT RightLeg
    {
      OFFSET 0.0 -0.444227 0.013727
      CHANNELS 3 ZROTATION XROTATION YROTATION 
      JOINT RightFoot
      {
        OFFSET 0.00253549 -0.420924 -0.0146059
        CHANNELS 3 ZROTATION XROTATION YROTATION 
        End Site
        {
          OFFSET 0.0004 -0.0441509 0.084991
        }
      }
    }
  }
}
MOTION
Frames: 13
Frame Time: 0.033333
-24.6696262 0.94812961347 -0.2821736 -10.9070001658 -0.507923015564 -96.809701107 -5.91989997725 0.150694997267 3.42388994767 -0.746973019769 21.1640992943 22.9030996079 -10.0577873783 -38.961103158 -22.676953752 -4.27737992762 14.6407000237 -0.0295676988189 -0.915007039213 -1.9352199091 -0.780212989138 76.4563589276 -11.4158740184 -5.9048791106 6.89387001185 41.1199005583 9.99630969939 -69.5706129988 2.79715541796 -5.56481509088 -1.86951007419 27.2204007106 -20.2435007847 -1.36770994969 -14.7168993216 4.20229992695 -2.13150994089 65.1950981939 -15.8308007224 42.2260975058 -60.2827373503 46.269736834 
-24.6903412 0.94978961347 -0.2799604 -10.9086001376 -0.109986002596 -96.4441015713 -5.66487992355 1.98870007686 3.57951004493 -0.898753003257 20.3642995104 22.4636998782 -10.2284362397 -39.9669065698 -22.9035264947 -4.1772100808 14.6454999391 -0.367138009133 -0.412813004898 -1.9669200977 -1.14531995081 76.2231421183 -11.6967689631 -6.65922483933 6.63144005668 40.8293989526 10.3156995903 -69.2716146377 3.73919261065 -6.92257132052 -0.861762993229 25.470099849 -22.4093008366 -0.839280998689 -16.6704000186 4.04263016783 -1.78105997821 59.9301015137 -16.1556991608 33.2501224457 -54.8177049199 38.1686304595 
-24.7107432 0.95058961347 -0.2782515 -10.8906000278 0.179919002167 -96.0465025993 -5.49988987396 3.81688003605 3.75738994215 -1.02508002 19.4503006711 22.0555994904 -10.452615001 -40.8609817473 -23.2486252176 -4.17140015114 14.7141996893 -0.62647599637 0.192998000675 -2.00696997911 -1.43490001466 75.882937226 -13.0529747398 -6.81933557253 6.84678012639 41.4070997677 9.78212008966 -69.0757794538 3.29504547261 -8.23256873304 -0.0372250012191 25.4949002658 -24.4245993776 -0.594506975795 -17.9294992883 3.52883004129 -1.49209004235 53.1856004819 -16.3575995527 26.0429085411 -48.1607805737 32.1945132944 
-24.7308292 0.95103961347 -0.2769948 -10.8164002678 0.291413009146 -95.6497027595 -5.4877300028 5.67251009862 3.85282988297 -1.14981005314 18.2270001304 21.6514998859 -10.5704144199 -41.5574971181 -23.4816729797 -4.31186982161 14.9083000052 -0.755684979416 1.02220002805 -2.18537003792 -1.61647002829 75.5100225577 -14.8848553808 -6.6484280178 7.22499032574 42.3066015304 8.90067990841 -69.0314856771 2.2198844779 -9.39055558983 0.665312025104 26.5575001158 -26.2700003781 -0.575409019823 -18.7142999767 2.79352004978 -1.26607001137 45.6605010355 -16.1318003289 20.1705714399 -41.0457212889 27.6819780645 
-24.7509602 0.95056961347 -0.2761075 -10.7189001711 0.169933999312 -95.2693978265 -5.72495997503 7.31990007312 3.85745007905 -1.19127997357 17.3479991805 21.3081001726 -10.8384634863 -42.3982080276 -23.7236785348 -4.40179011581 15.1693003164 -0.761892981041 1.52561004948 -2.41067001755 -1.63688002092 75.29058224 -16.6915001805 -6.29531321413 7.50234040227 43.2476001075 8.09466977502 -68.9751844278 1.78689135894 -10.466846554 1.23786004944 27.2701996198 -27.7886997703 -0.795550979332 -19.037999717 2.01498990186 -1.08810996616 37.8097006035 -15.6450007939 15.5404015694 -33.865560056 24.3428539661 
-24.7721122 0.94862961347 -0.2755638 -10.6758998614 -0.130943997837 -94.8402023994 -6.15919010529 8.74299986877 3.87115997627 -1.13813000277 17.1921991504 20.987999942 -11.4581102007 -43.6254734931 -24.1930149836 -4.25403989057 15.3411000646 -0.746911974953 1.34233003395 -2.44553002242 -1.53979998092 75.3368772622 -17.9259868635 -5.72357472729 7.63199019932 43.746101464 7.6248799724 -68.9003528752 1.80468795043 -11.4942128731 1.67415001534 27.7700004199 -28.8484002049 -1.22921004174 -18.8058996437 0.926521030606 -0.991347956844 30.0345991581 -15.3148004212 12.1905890788 -26.9605734844 22.5242665807 
-24.7946502 0.94595961347 -0.2753599 -10.6442000997 -0.448810022814 -94.2699977169 -6.57098989431 10.2471996231 3.90644985616 -1.04536002558 17.0749999344 20.5338999377 -12.1781632571 -44.9210920768 -24.7610476659 -3.87094012955 15.3476006971 -0.781193014562 0.94231200108 -2.24178996179 -1.44208003758 75.5093395388 -18.1330508784 -4.95419617909 7.63481021368 43.4824015206 7.63475984103 -68.8802789492 2.18893091436 -12.2778097407 1.97475005581 28.1173001712 -29.4332010016 -1.70500998395 -18.2101005349 -0.932867023397 -0.843716993112 22.91129925 -14.9922003414 9.61323597847 -20.8808974532 22.0502343768 
-24.8185012 0.94294661347 -0.2755973 -10.4924998907 -0.678143015708 -93.6487988421 -6.86065992456 11.8813001839 3.89081000362 -0.894072989654 16.6006006079 20.0226995519 -12.8866015769 -46.0801854242 -25.2860108829 -3.32225993447 15.1336006251 -0.802098996312 0.707541003669 -1.95271992097 -1.33455994672 75.5895806011 -17.4002245144 -4.10710459228 7.54069959842 42.7951000749 8.01077029258 -68.9653899365 2.95860038593 -12.6093232173 2.03902000146 28.1989004413 -29.5092005165 -2.10311001432 -17.6960007338 -2.52222002675 -0.17222499417 17.2126999632 -14.8527995955 7.33623361675 -16.2426799124 21.8618253161 
-24.8442452 0.93889361347 -0.2765114 -10.2123998093 -0.813839984774 -93.2071997915 -7.09008000237 13.4750001758 3.85597988084 -0.642133991599 16.2278003453 19.7307994649 -13.9189129529 -47.3638784976 -25.9736709134 -2.62902006626 14.5881997746 -0.735416019528 0.396159002669 -1.62717005324 -1.11204999264 75.5445969753 -16.5179348284 -3.12358083057 7.51114024724 42.4966003176 8.24759002657 -69.195259953 3.94885081675 -12.3864174325 1.83883996349 27.9806998029 -29.069298768 -2.30853008804 -17.4412005268 -2.39396999159 0.723820012504 13.5982996044 -15.409700777 5.66816353699 -13.5043307156 21.2804874253 
-24.8722602 0.93366361347 -0.2784325 -9.90594971177 -0.895146023045 -92.8799995793 -7.22378991999 15.0341001368 3.94424001218 -0.340152011764 16.2331996098 19.485500051 -15.4090314185 -48.9280601194 -26.9713310323 -1.99346989677 13.7687999091 -0.64534802249 0.0677906013479 -1.22324002952 -0.879390003929 75.4573959501 -16.3455681745 -1.85863982812 7.74198015062 43.0978003986 7.87245981566 -69.6143671907 4.91627326127 -11.484975896 1.47589000758 27.5753997927 -28.2085002721 -2.12591003954 -17.2116003027 -1.90058999623 0.86316200807 12.2000002257 -15.8778999994 5.07241138569 -12.7983939526 20.8551271494 
-24.9018302 0.92846761347 -0.2815664 -9.57634015035 -0.965380965002 -92.1778014911 -7.02061996671 16.593799447 4.18736998719 -0.0048408999093 16.404799575 18.6394001223 -17.153984242 -50.5669127843 -28.1646180143 -1.61906998249 12.979399942 -0.693916003574 0.268031990957 -0.933583979816 -0.910783954593 75.3658372643 -16.9444391609 -0.554577316381 8.09317994001 44.105499188 7.15110005864 -70.12055251 6.25892196623 -9.93127776076 0.890146004407 26.8316997676 -26.8391993153 -1.68251998528 -16.856199947 -1.56679000704 0.608061005955 12.5950003106 -17.1175007865 5.27372011242 -13.8725282845 21.2816553876 
-24.9322732 0.92450661347 -0.2855225 -9.15967982796 -0.465581979208 -91.1080026218 -6.18288018954 17.9768000558 4.38146005774 0.464992021618 16.8391996062 17.1983992546 -18.7209559961 -52.4127304264 -29.1354798859 -0.89621494765 12.4341997283 -0.939216004396 0.765651986323 -1.00024000937 -1.1398800253 75.2700916725 -17.7785486925 0.319995216389 8.15700037384 44.5476992952 6.8498998153 -70.542883597 8.72781891957 -8.13953558013 -0.143859005104 25.4425997998 -24.6335007134 -1.06860998952 -16.6971999733 -1.76775999907 0.632208979683 14.3500003424 -18.6440992925 6.00846832088 -16.0635103901 22.1914639058 
-24.9639372 0.92148861347 -0.2896062 -8.79393002809 0.0522650010652 -89.7989012447 -4.65930020035 19.000899837 4.27286986834 0.983718955706 18.2518005473 16.1976997016 -22.1340920244 -54.3590747926 -31.6679501056 1.14310995773 12.0196004155 -1.19428995256 0.48893999887 -1.18824000578 -1.09319002607 75.2553179733 -18.5598608619 0.953413299637 8.06694006076 44.3243008829 6.87692986205 -71.0579823133 10.4845350364 -6.40997971057 -1.62394001409 25.0548004418 -21.5968003159 -0.0118824997759 -17.115099975 -2.62474991737 0.894595979373 17.5548002331 -18.751300819 6.00432623803 -19.4335410945 22.0950011442 
